 
<!-- Generator: Adobe Illustrator 21.0.0, SVG Export Plug-In . SVG Version: 6.00 Build 0)  -->
<svg version="1.1" id="Camada_1" xmlns="http://www.w3.org/2000/svg" xmlns:xlink="http://www.w3.org/1999/xlink" x="0px" y="0px"
	 viewBox="0 0 841.9 595.3" style="enable-background:new 0 0 841.9 595.3;" xml:space="preserve">
<style type="text/css">
	.st0{opacity:0.5;fill:#00CDCD;}
	.st1{opacity:0.8;fill:#FFFFFF;}
	.st2{fill:#33CC33;}
	.st3{opacity:0.8;fill:#E6E6E6;}
	.st4{fill:#CC3333;}
</style>
<circle id="Elipse3" class="st0" cx="194.7" cy="441.1" r="82.6"/>
<circle id="Elipse2" class="st0" cx="383.7" cy="115.7" r="80.7"/>
<circle id="Elipse1_2_" class="st0" cx="640.4" cy="345.5" r="122.2"/>
<g id="check1">
	<path class="st1" d="M651.1,155.1l-67.5,4.5c-20.4,1.4-38.2-14.2-39.6-34.6v0c-1.4-20.4,14.2-38.2,34.6-39.6l67.5-4.5
		c20.4-1.4,38.2,14.2,39.6,34.6l0,0C687.1,136,671.5,153.8,651.1,155.1z"/>
	
		<ellipse transform="matrix(0.9978 -6.650072e-02 6.650072e-02 0.9978 -6.819 39.0582)" class="st2" cx="583.3" cy="122" rx="31.5" ry="31.5"/>
</g>
<path id="retangulo1" class="st3" d="M352.3,170.3l-188.7,12.6c-6.2,0.4-11.5-4.3-11.9-10.4v0c-0.4-6.2,4.3-11.5,10.4-11.9
	l188.7-12.6c6.2-0.4,11.5,4.3,11.9,10.4v0C363.1,164.5,358.4,169.9,352.3,170.3z"/>
<path id="retangulo1_1_" class="st3" d="M300.4,137.8l-69.2,4.6c-6.2,0.4-11.5-4.3-11.9-10.4l0,0c-0.4-6.2,4.3-11.5,10.4-11.9
	l69.2-4.6c6.2-0.4,11.5,4.3,11.9,10.4v0C311.2,132,306.5,137.4,300.4,137.8z"/>
<g id="check2">
	<path class="st1" d="M659.1,274.9l-67.5,4.5c-20.4,1.4-38.2-14.2-39.6-34.6v0c-1.4-20.4,14.2-38.2,34.6-39.6l67.5-4.5
		c20.4-1.4,38.2,14.2,39.6,34.6v0C695.1,255.8,679.5,273.6,659.1,274.9z"/>
	
		<ellipse transform="matrix(0.9978 -6.650072e-02 6.650072e-02 0.9978 -14.37 44.1102)" class="st4" cx="655.4" cy="237.9" rx="31.5" ry="31.5"/>
</g>
<path id="retangulo1_3_" class="st3" d="M338,288.7l-188.7,12.6c-6.2,0.4-11.5-4.3-11.9-10.4v0c-0.4-6.2,4.3-11.5,10.4-11.9
	l188.7-12.6c6.2-0.4,11.5,4.3,11.9,10.4v0C348.9,282.9,344.2,288.3,338,288.7z"/>
<path id="retangulo1_2_" class="st3" d="M275.8,256.2l-69.2,4.6c-6.2,0.4-11.5-4.3-11.9-10.4v0c-0.4-6.2,4.3-11.5,10.4-11.9
	l69.2-4.6c6.2-0.4,11.5,4.3,11.9,10.4v0C286.7,250.4,282,255.8,275.8,256.2z"/>
<g id="chekc3">
	<path class="st1" d="M667,393.3l-67.5,4.5c-20.4,1.4-38.2-14.2-39.6-34.6v0c-1.4-20.4,14.2-38.2,34.6-39.6l67.5-4.5
		c20.4-1.4,38.2,14.2,39.6,34.6v0C703,374.1,687.4,392,667,393.3z"/>
	
		<ellipse transform="matrix(0.9978 -6.650072e-02 6.650072e-02 0.9978 -22.622 40.641)" class="st2" cx="599.1" cy="360.1" rx="31.5" ry="31.5"/>
</g>
<path id="retangulo1_5_" class="st3" d="M378.4,407.1l-188.7,12.6c-6.2,0.4-11.5-4.3-11.9-10.4v0c-0.4-6.2,4.3-11.5,10.4-11.9
	l188.7-12.6c6.2-0.4,11.5,4.3,11.9,10.4v0C389.2,401.3,384.5,406.7,378.4,407.1z"/>
<path id="retangulo1_4_" class="st3" d="M288.3,374.6l-69.2,4.6c-6.2,0.4-11.5-4.3-11.9-10.4v0c-0.4-6.2,4.3-11.5,10.4-11.9
	l69.2-4.6c6.2-0.4,11.5,4.3,11.9,10.4l0,0C299.2,368.8,294.5,374.2,288.3,374.6z"/>
</svg>
