<?xml version="1.0" encoding="utf-8"?>
<!-- Generator: Adobe Illustrator 21.0.0, SVG Export Plug-In . SVG Version: 6.00 Build 0)  -->
<svg version="1.1" id="Camada_1" xmlns="http://www.w3.org/2000/svg" xmlns:xlink="http://www.w3.org/1999/xlink" x="0px" y="0px"
	 viewBox="0 0 841.9 595.3" style="enable-background:new 0 0 841.9 595.3;" xml:space="preserve">
<style type="text/css">
	.st0{opacity:0.5;fill:#00CDCD;}
	.st1{opacity:0.9;fill:#3399FF;}
	.st2{font-family:'Roboto-Black';}
	.st3{font-size:85.4528px;}
	.st4{font-size:156.7808px;}
	.st5{opacity:0.9;fill:#FF3366;}
	.st6{font-size:92.3298px;}
	.st7{fill:#9999AD;}
	.st8{opacity:0.8;fill:#F2F2F2;}
	.st9{font-size:59.846px;}
</style>
<circle id="Elipse1" class="st0" cx="665.1" cy="327.4" r="130.9"/>
<circle id="Elipse1_1_" class="st0" cx="148.3" cy="101.8" r="88.8"/>
<circle id="Elipse1_2_" class="st0" cx="337.7" cy="458.3" r="111.7"/>
<text transform="matrix(0.9992 3.876776e-02 -3.876776e-02 0.9992 206.5282 403.1119)" class="st1 st2 st3">6,5</text>
<text transform="matrix(0.9935 0.1135 -0.1135 0.9935 146.0885 242.7417)" class="st1 st2 st4">9</text>
<text transform="matrix(0.9935 0.1135 -0.1135 0.9935 488.6097 242.7414)" class="st1 st2 st4">7,7</text>
<text transform="matrix(0.9875 -0.1579 0.1579 0.9875 295.6603 288.8144)" class="st5 st2 st6">4,2</text>
<path id="retangulo1" class="st7" d="M569.3,423.5H439.8c-20.8,0-37.7-17-37.7-37.7v-20.6c0-20.8,17-37.7,37.7-37.7h129.5
	c20.8,0,37.7,17,37.7,37.7v20.6C607.1,406.5,590.1,423.5,569.3,423.5z"/>
<text transform="matrix(1 0 0 1 444.3252 396.6963)" class="st8 st2 st9">6,85</text>
</svg>
